 
http://www.imdb.com/title/tt1155076/

Release Date: 11 June 2010 (USA)

Genre: Action | Drama | Family | Sport

Plot: Work causes a single mother to move to China with her young son; in his new home, the boy embraces kung fu, taught to him by a master.

Cast:
Jaden Smith ... Dre Parker
Jackie Chan ... Mr. Han
Taraji P. Henson ... Sherry Parker
Wenwen Han ... Meiying
Rongguang Yu ... Master Li
Zhensu Wu ... Meiying's Dad
Zhiheng Wang ... Meiying's Mom
Zhenwei Wang ... Cheng
Jared Minns ... Dre's Detroit Friend
Shijia Lü ... Liang
Yi Zhao ... Zhuang
Bo Zhang ... Song
Luke Carberry ... Harry
Cameron Hillman ... Mark
Ghye Samuel Brown ... Oz

 
http://www.imagebam.com/image/07786094123609

File Name

The Karate Kid 2010 536p BRRip H264.mp4

File Size
Format : MPEG-4
Format profile : Base Media
Codec ID : isom
File size : 2.68 GiB
Duration : 2h 20mn
Overall bit rate : 2 742 Kbps

Video
ID : 1
Format : AVC
Format/Info : Advanced Video Codec
Format profile : High@L4.1
Format settings, CABAC : Yes
Format settings, ReFrames : 3 frames
Codec ID : avc1
Codec ID/Info : Advanced Video Coding
Duration : 2h 20mn
Bit rate mode : Variable
Bit rate : 2 099 Kbps
Maximum bit rate : 9 037 Kbps
Width : 1 264 pixels
Height : 536 pixels
Display aspect ratio : 2.35:1
Frame rate mode : Constant
Frame rate : 23.976 fps
Resolution : 24 bits
Colorimetry : 4:2:0
Scan type : Progressive
Bits/(Pixel*Frame) : 0.129
Stream size : 2.05 GiB (77%)

Audio #1
ID : 2
Format : AAC
Format/Info : Advanced Audio Codec
Format version : Version 4
Format profile : LC
Format settings, SBR : No
Codec ID : 40
Duration : 2h 20mn
Bit rate mode : Variable
Bit rate : 192 Kbps
Maximum bit rate : 198 Kbps
Channel(s) : 2 channels
Channel positions : L R
Sampling rate : 48.0 KHz
Resolution : 16 bits
Stream size : 191 MiB (7%)

Audio #2
ID : 3
Format : AAC
Format/Info : Advanced Audio Codec
Format version : Version 4
Format profile : LC
Format settings, SBR : No
Codec ID : 40
Duration : 2h 20mn
Bit rate mode : Variable
Bit rate : 448 Kbps
Maximum bit rate : 465 Kbps
Channel(s) : 6 channels
Channel positions : Front: L C R, Rear: L R, LFE
Sampling rate : 48.0 KHz
Resolution : 16 bits
Stream size : 448 MiB (16%)

English SRT : External/ Hard Coded Forced English where needed

Language : English